{
    "asset" : {
        "generator" : "Khronos glTF Blender I/O v1.3.48",
        "version" : "2.0"
    },
    "scene" : 0,
    "scenes" : [
        {
            "name" : "Scene",
            "nodes" : [
                3
            ]
        }
    ],
    "nodes" : [
        {
            "name" : "Bone.001",
            "rotation" : [
                0.7426609992980957,
                -1.112192080654495e-06,
                1.7714926343614934e-06,
                0.6696675419807434
            ],
            "scale" : [
                1,
                0.9999998211860657,
                0.9999998807907104
            ],
            "translation" : [
                3.210004148341411e-14,
                0.5528395175933838,
                3.7054417312276655e-09
            ]
        },
        {
            "children" : [
                0
            ],
            "name" : "Bone",
            "rotation" : [
                0.6787165999412537,
                1.4857296264381148e-06,
                1.373078362121305e-06,
                0.7344003319740295
            ],
            "scale" : [
                1,
                0.9999998807907104,
                1.0000017881393433
            ]
        },
        {
            "mesh" : 0,
            "name" : "Suzanne",
            "skin" : 0
        },
        {
            "children" : [
                2,
                1
            ],
            "name" : "Armature"
        }
    ],
    "materials" : [
        {
            "doubleSided" : true,
            "emissiveFactor" : [
                0,
                0,
                0
            ],
            "name" : "A",
            "pbrMetallicRoughness" : {
                "metallicFactor" : 0,
                "roughnessFactor" : 0.5
            }
        },
        {
            "doubleSided" : true,
            "emissiveFactor" : [
                0,
                0,
                0
            ],
            "name" : "B",
            "pbrMetallicRoughness" : {
                "metallicFactor" : 0,
                "roughnessFactor" : 0.5
            }
        }
    ],
    "meshes" : [
        {
            "name" : "Suzanne",
            "primitives" : [
                {
                    "attributes" : {
                        "POSITION" : 0,
                        "NORMAL" : 1,
                        "TEXCOORD_0" : 2,
                        "COLOR_0" : 3,
                        "JOINTS_0" : 4,
                        "WEIGHTS_0" : 5
                    },
                    "indices" : 6,
                    "material" : 0
                },
                {
                    "attributes" : {
                        "POSITION" : 7,
                        "NORMAL" : 8,
                        "TEXCOORD_0" : 9,
                        "COLOR_0" : 10,
                        "JOINTS_0" : 11,
                        "WEIGHTS_0" : 12
                    },
                    "indices" : 13,
                    "material" : 1
                }
            ]
        }
    ],
    "skins" : [
        {
            "inverseBindMatrices" : 14,
            "joints" : [
                1,
                0
            ],
            "name" : "Armature"
        }
    ],
    "accessors" : [
        {
            "bufferView" : 0,
            "componentType" : 5126,
            "count" : 1163,
            "max" : [
                1.3671875,
                0.9843852519989014,
                0.8515622615814209
            ],
            "min" : [
                -0.484375,
                -0.9843855500221252,
                -0.8515627384185791
            ],
            "type" : "VEC3"
        },
        {
            "bufferView" : 1,
            "componentType" : 5126,
            "count" : 1163,
            "type" : "VEC3"
        },
        {
            "bufferView" : 2,
            "componentType" : 5126,
            "count" : 1163,
            "type" : "VEC2"
        },
        {
            "bufferView" : 3,
            "componentType" : 5126,
            "count" : 1163,
            "type" : "VEC4"
        },
        {
            "bufferView" : 4,
            "componentType" : 5123,
            "count" : 1163,
            "type" : "VEC4"
        },
        {
            "bufferView" : 5,
            "componentType" : 5126,
            "count" : 1163,
            "type" : "VEC4"
        },
        {
            "bufferView" : 6,
            "componentType" : 5123,
            "count" : 1683,
            "type" : "SCALAR"
        },
        {
            "bufferView" : 7,
            "componentType" : 5126,
            "count" : 835,
            "max" : [
                -0.0390625,
                0.9296971559524536,
                0.8515622615814209
            ],
            "min" : [
                -1.3671875,
                -0.9687603712081909,
                -0.7031251788139343
            ],
            "type" : "VEC3"
        },
        {
            "bufferView" : 8,
            "componentType" : 5126,
            "count" : 835,
            "type" : "VEC3"
        },
        {
            "bufferView" : 9,
            "componentType" : 5126,
            "count" : 835,
            "type" : "VEC2"
        },
        {
            "bufferView" : 10,
            "componentType" : 5126,
            "count" : 835,
            "type" : "VEC4"
        },
        {
            "bufferView" : 11,
            "componentType" : 5123,
            "count" : 835,
            "type" : "VEC4"
        },
        {
            "bufferView" : 12,
            "componentType" : 5126,
            "count" : 835,
            "type" : "VEC4"
        },
        {
            "bufferView" : 13,
            "componentType" : 5123,
            "count" : 1221,
            "type" : "SCALAR"
        },
        {
            "bufferView" : 14,
            "componentType" : 5126,
            "count" : 2,
            "type" : "MAT4"
        }
    ],
    "bufferViews" : [
        {
            "buffer" : 0,
            "byteLength" : 13956,
            "byteOffset" : 0
        },
        {
            "buffer" : 0,
            "byteLength" : 13956,
            "byteOffset" : 13956
        },
        {
            "buffer" : 0,
            "byteLength" : 9304,
            "byteOffset" : 27912
        },
        {
            "buffer" : 0,
            "byteLength" : 18608,
            "byteOffset" : 37216
        },
        {
            "buffer" : 0,
            "byteLength" : 9304,
            "byteOffset" : 55824
        },
        {
            "buffer" : 0,
            "byteLength" : 18608,
            "byteOffset" : 65128
        },
        {
            "buffer" : 0,
            "byteLength" : 3366,
            "byteOffset" : 83736
        },
        {
            "buffer" : 0,
            "byteLength" : 10020,
            "byteOffset" : 87104
        },
        {
            "buffer" : 0,
            "byteLength" : 10020,
            "byteOffset" : 97124
        },
        {
            "buffer" : 0,
            "byteLength" : 6680,
            "byteOffset" : 107144
        },
        {
            "buffer" : 0,
            "byteLength" : 13360,
            "byteOffset" : 113824
        },
        {
            "buffer" : 0,
            "byteLength" : 6680,
            "byteOffset" : 127184
        },
        {
            "buffer" : 0,
            "byteLength" : 13360,
            "byteOffset" : 133864
        },
        {
            "buffer" : 0,
            "byteLength" : 2442,
            "byteOffset" : 147224
        },
        {
            "buffer" : 0,
            "byteLength" : 128,
            "byteOffset" : 149668
        }
    ],
    "buffers" : [
        {
            "byteLength" : 149796,
            "uri" : "data:application/octet-stream;base64,"
        }
    ]
}
